<svg xmlns="http://www.w3.org/2000/svg" viewBox="0 0 800 800" width="800" height="800" role="img" aria-label="Anker PowerLine Lightning Cable 1m">
  <defs>
    <linearGradient id="bg" x1="0" y1="0" x2="1" y2="1">
      <stop offset="0" stop-color="#3730a3"/>
      <stop offset="1" stop-color="#6366f1"/>
    </linearGradient>
    <linearGradient id="card" x1="0" y1="0" x2="0" y2="1">
      <stop offset="0" stop-color="#ffffff" stop-opacity="0.98"/>
      <stop offset="1" stop-color="#f3f4f6"/>
    </linearGradient>
  </defs>
  <rect width="800" height="800" fill="url(#bg)"/>
  <circle cx="136" cy="167" r="180" fill="rgba(255,255,255,0.22)"/>
  <circle cx="584" cy="614" r="120" fill="rgba(255,255,255,0.22)"/>
  <rect x="120" y="120" width="560" height="560" rx="36" fill="url(#card)" opacity="0.96"/>
  <circle cx="660" cy="140" r="14" fill="#6366f1" opacity="0.85"/>
  <circle cx="620" cy="140" r="10" fill="#6366f1" opacity="0.5"/>
  <text x="160" y="180" font-family="system-ui, sans-serif" font-size="26" font-weight="700" fill="#3730a3">ANKER</text>
  <g transform="translate(210 300)" fill="#3730a3" opacity="0.9">
    <path d="M220,320 h360 v240 a20,20 0 0 1 -20,20 h-320 a20,20 0 0 1 -20,-20 z"/>
    <path d="M370,580 h60" fill="none" stroke="#6366f1" stroke-width="10" stroke-linecap="round"/>
  </g>
  <text x="160" y="590" font-family="system-ui, sans-serif" font-size="30" font-weight="600" fill="#111827">
    <tspan x="160" dy="0">Anker PowerLine</tspan>
    <tspan x="160" dy="38">Lightning Cable 1m</tspan>
    
  </text>
  <text x="160" y="682" font-family="system-ui, sans-serif" font-size="20" fill="#6b7280">Yemanuel Store — Ghana</text>
</svg>